PathFileType	4	(X/Y/Z)	F:\MotionCapture\20160217\3\Generated_files\EMG_test06-Dynamic.trc
DataRate	CameraRate	NumFrames	NumMarkers	Units	OrigDataRate	OrigDataStartFrame	OrigNumFrames
120.00	120.00	        6	39	mm	120.00	13	        99
Frame#	Time	Top.Head			Front.Head			Rear.Head			R.Shoulder			R.Offset			R.Elbow			R.Wrist			L.Shoulder			L.Elbow			L.Wrist			R.ASIS			L.ASIS			V.Sacral			R.Thigh			R.Knee			R.Shank			R.Ankle			R.Heel			R.Toe			L.Thigh			L.Knee			L.Shank			L.Ankle			L.Heel			L.Toe			R1			R2			R3			R4			R5			R6			R7			L1			L2			L3			L4			L5			L6			L7			V_Mid_ASIS			V_Pelvis_Origin			V_R.Hip_JC			V_L.Hip_JC			V_R.Knee_JC			V_L.Knee_JC			V_R.Ankle_JC			V_L.Ankle_JC			V_Mid_Hip			V_Mid_Shoulder			V_R.Hand			V_L.Hand			V_R.Toe_Offset_Static			V_L.Toe_Offset_Static			V_R.Toe_Offset			V_L.Toe_Offset			
		X1	Y1	Z1	X2	Y2	Z2	X3	Y3	Z3	X4	Y4	Z4	X5	Y5	Z5	X6	Y6	Z6	X7	Y7	Z7	X8	Y8	Z8	X9	Y9	Z9	X10	Y10	Z10	X11	Y11	Z11	X12	Y12	Z12	X13	Y13	Z13	X14	Y14	Z14	X15	Y15	Z15	X16	Y16	Z16	X17	Y17	Z17	X18	Y18	Z18	X19	Y19	Z19	X20	Y20	Z20	X21	Y21	Z21	X22	Y22	Z22	X23	Y23	Z23	X24	Y24	Z24	X25	Y25	Z25	X26	Y26	Z26	X27	Y27	Z27	X28	Y28	Z28	X29	Y29	Z29	X30	Y30	Z30	X31	Y31	Z31	X32	Y32	Z32	X33	Y33	Z33	X34	Y34	Z34	X35	Y35	Z35	X36	Y36	Z36	X37	Y37	Z37	X38	Y38	Z38	X39	Y39	Z39	

13	0.100	2389.93359	75.08418	1722.92688	2299.62964	84.90113	1616.34363	2508.10107	48.19358	1679.92419	2509.74609	246.98712	1435.17175	2624.88062	-25.27472	1284.73730	2575.40674	337.51031	1115.46204	2520.47314	367.25879	862.37061	2466.01733	-161.35034	1431.42419	2479.31812	-243.81970	1101.36340	2386.68481	-221.49232	864.30115	2425.62061	208.04506	958.86871	2403.40137	-81.48234	951.91992	2638.73438	43.62463	954.02893	2380.60913	197.02257	586.67139	2444.61011	241.53835	480.38126	2452.16016	190.36433	240.45639	2514.66968	268.93497	80.66724	2578.74438	207.07516	49.42644	2368.86963	258.70511	47.52617	2374.40454	-24.69942	631.19812	2463.93188	-76.31931	470.64655	2457.94385	2.95280	333.19275	2533.78345	-51.18674	66.41855	2597.12134	6.68604	49.84928	2393.32007	-51.96442	47.36628	2318.61597	240.87756	43.19730	2363.27734	223.38742	54.55483	2458.49683	184.65100	62.11869	2530.86572	179.53064	46.75168	2551.64087	252.29295	51.53485	2475.99268	283.21701	42.27654	2409.14746	302.51089	42.61321	2346.24634	-27.92726	41.05937	2380.14478	-13.05800	50.72052	2474.02197	33.90625	53.86974	2557.27466	36.95713	50.28605	2572.27173	-34.57986	48.68383	2500.24536	-65.66673	41.49256	2436.10303	-82.17388	44.91005	
14	0.108	2389.43823	73.61528	1723.14661	2300.71338	83.19912	1616.77747	2507.28223	47.30740	1679.82605	2507.63379	246.09067	1435.69531	2624.88916	-25.16782	1285.13086	2573.51538	336.65027	1116.03601	2519.73828	367.11450	862.70715	2465.23364	-162.33810	1431.19128	2482.34082	-245.80591	1101.98718	2393.76587	-225.85208	863.20447	2425.71484	207.09294	958.34021	2405.53394	-83.35371	951.88110	2639.32471	43.35176	954.37958	2380.47583	196.20320	586.72900	2444.26465	241.19453	480.32892	2451.93848	190.24893	240.40038	2514.57715	268.86349	80.60854	2578.75293	207.05910	49.46008	2368.81958	258.58231	47.48134	2374.56323	-25.71427	631.07373	2464.46802	-76.59594	470.54401	2458.38916	2.31256	333.17313	2533.83472	-51.25944	66.29687	2597.16455	6.66153	49.80273	2393.42383	-51.98096	47.29578	2318.62646	240.85008	43.19384	2363.30249	223.33409	54.57160	2458.49463	184.62999	62.10572	2530.78516	179.49966	46.56765	2551.62207	252.25568	51.56050	2476.00000	283.18292	42.33889	2409.05469	302.47275	42.66262	2346.31860	-27.90615	40.99924	2380.11523	-13.06689	50.65167	2474.00757	33.88369	53.83893	2557.27856	36.96573	50.24464	2572.29224	-34.59784	48.64284	2500.17993	-65.56506	41.30526	2436.38745	-79.84126	42.84452																																																	3061.71387	163.20116	-146.40732	
15	0.117	2388.05469	71.77183	1722.99817	2295.64185	80.47457	1617.11499	2506.59619	46.17999	1679.62988	2505.77222	245.51027	1436.15198	2624.85474	-25.08021	1285.54712	2572.51172	336.34256	1116.75061	2518.79028	365.80811	863.19470	2465.54150	-163.44081	1431.05701	2485.68433	-248.07510	1102.52759	2400.55566	-229.88728	861.96826	2425.08643	205.78804	957.88007	2406.20020	-84.21642	951.96375	2640.07007	43.27725	954.67834	2380.47632	195.75212	586.45050	2444.09424	240.89561	480.26721	2451.48901	189.97874	240.30301	2514.46289	268.87347	80.70158	2578.75977	207.00151	49.45349	2368.81836	258.54138	47.48352	2374.91846	-26.23182	630.96973	2465.49585	-77.20502	470.74225	2458.09399	2.06897	333.45477	2533.88623	-51.29024	66.24482	2597.16724	6.64207	49.77503	2393.47290	-52.05892	47.24737	2318.70190	240.82889	43.19963	2363.28369	223.25145	54.42924	2458.46484	184.60182	62.07001	2530.80054	179.43712	46.66326	2551.57129	252.26500	51.55270	2475.96362	283.16583	42.43070	2409.01074	302.43457	42.67192	2346.39844	-28.02772	41.07337	2380.16724	-13.09661	50.65770	2473.97632	33.94251	53.85923	2557.24976	36.98533	50.17888	2572.32666	-34.58701	48.62801	2500.35498	-65.74256	41.44554	2436.55127	-79.98318	42.89663																																																	3061.63892	163.14185	-146.36557	
16	0.125	2386.95801	70.35471	1722.99084	2296.56348	79.70180	1617.03577	2505.76538	45.05913	1679.50122	2504.20557	244.67751	1436.52271	2624.80176	-24.99455	1285.90784	2571.21094	336.29825	1117.33667	2517.73340	365.33893	863.41333	2465.98120	-164.50139	1430.98328	2489.03394	-250.77185	1103.54541	2407.55151	-234.01689	860.89758	2426.01294	205.32013	957.50006	2406.58472	-84.80608	951.78833	2640.46680	43.12555	954.91602	2381.63843	195.85887	585.85089	2443.84912	240.75302	480.11859	2451.03735	189.69977	240.44113	2514.41455	268.78207	80.94227	2578.72095	207.03815	49.52238	2368.80957	258.48105	47.46387	2375.73633	-26.68998	630.89697	2466.69409	-78.08141	470.96695	2458.40796	1.79852	333.73535	2533.88477	-51.23841	66.22392	2597.20557	6.68008	49.71205	2393.49487	-52.10564	47.24948	2318.64038	240.74898	43.22874	2363.28223	223.23364	54.48758	2458.32690	184.53131	62.08457	2530.75439	179.45934	46.61694	2551.50659	252.25562	51.66180	2475.94238	283.11432	42.57483	2408.90698	302.33932	42.74995	2346.36157	-28.10513	41.01434	2380.15454	-13.15133	50.64423	2474.03003	33.71087	53.93867	2557.30347	36.96889	50.35012	2572.36987	-34.56064	48.60458	2500.37036	-65.69889	41.36639	2436.62256	-80.10212	42.96395																																																	3061.42456	163.05199	-146.28349	3010.86182	143.69177	-153.07300	
17	0.133	2386.45190	69.16545	1722.96033	2295.62061	77.98793	1617.03625	2504.73926	44.34008	1679.39746	2502.21289	243.89589	1437.21741	2624.73218	-25.00152	1286.23669	2570.33594	336.59708	1118.16626	2515.98511	364.44409	863.67047	2466.29248	-165.18822	1430.74585	2492.05933	-252.54535	1103.73853	2414.41821	-238.06210	860.15704	2426.20361	204.97728	957.63861	2407.06128	-85.35870	951.67999	2641.14551	43.07483	955.30078	2379.76660	194.89348	586.58557	2443.11255	240.22701	480.15277	2450.70947	189.63202	240.34460	2514.31372	268.77579	81.07030	2578.71729	206.96375	49.55168	2368.72339	258.41312	47.47486	2378.06543	-27.24918	630.69366	2467.26074	-78.63200	471.09244	2459.81030	1.44796	333.79248	2533.91309	-51.32116	66.13640	2597.18433	6.71984	49.72499	2393.57373	-52.22744	47.20713	2318.53882	240.73659	43.15300	2363.22339	223.19012	54.44448	2458.36548	184.46710	61.98849	2530.74341	179.38029	46.67764	2551.48486	252.22786	51.69965	2475.86597	283.10376	42.50773	2408.88867	302.33487	42.77139	2346.38452	-28.21544	40.94827	2380.19214	-13.23335	50.60461	2474.20044	33.68670	53.87887	2557.26489	36.91012	50.22138	2572.38696	-34.58427	48.57167	2500.45410	-65.66592	41.31001	2436.64526	-80.14255	42.89045																																																	1732.51868	-8.66601	386.75632	3061.52271	163.06760	-146.32332	2989.47729	139.08627	-144.82300	
18	0.142	2385.46973	67.25536	1723.05432	2292.78271	75.59460	1617.40759	2503.88647	43.27423	1679.20337	2500.30249	242.94226	1437.33093	2624.63110	-25.07382	1286.60840	2568.91382	336.70224	1118.96338	2513.95947	363.86615	864.67249	2466.33618	-165.73689	1430.36499	2494.71875	-254.25975	1104.14392	2420.69336	-241.90874	859.36115	2426.53003	204.42688	957.48871	2409.47998	-86.77436	951.62915	2641.95068	42.85603	955.61261	2379.41138	194.47299	586.77722	2442.93970	239.89198	480.30206	2450.60767	189.53215	240.32887	2514.28931	268.80484	81.04475	2578.67139	206.95334	49.62612	2368.71558	258.44977	47.51957	2378.12500	-28.48830	631.04993	2468.07617	-78.99712	471.26953	2460.61426	1.16235	333.84396	2534.03613	-51.42841	66.21418	2597.20923	6.72350	49.70104	2393.54858	-52.28735	47.19849	2318.49072	240.68150	43.16811	2363.22241	223.13023	54.43856	2458.26440	184.44827	61.99064	2530.64917	179.39696	46.62921	2551.38818	252.22264	51.69978	2475.91870	282.89883	42.89395	2408.70996	302.20831	42.66331	2346.53784	-28.36099	41.01433	2380.22510	-13.25778	50.58717	2474.16846	33.61070	53.92481	2557.29077	36.93569	50.24106	2572.52441	-34.57109	48.54591	2500.52588	-65.70735	41.35702	2436.45728	-82.60220	44.84842																																																	2804.96509	137.39337	349.17267	2318.72852	-29.61542	68.69921	2989.47729	139.04327	-144.84348	
